<?xml version="1.0" encoding="UTF-8" standalone="no"?>
<svg
   xmlns:dc="http://purl.org/dc/elements/1.1/"
   xmlns:cc="http://creativecommons.org/ns#"
   xmlns:rdf="http://www.w3.org/1999/02/22-rdf-syntax-ns#"
   xmlns:svg="http://www.w3.org/2000/svg"
   xmlns="http://www.w3.org/2000/svg"
   xmlns:xlink="http://www.w3.org/1999/xlink"
   xmlns:sodipodi="http://sodipodi.sourceforge.net/DTD/sodipodi-0.dtd"
   xmlns:inkscape="http://www.inkscape.org/namespaces/inkscape"
   version="1.0"
   width="1160.000000pt"
   height="1280.000000pt"
   viewBox="0 0 1160.000000 1280.000000"
   preserveAspectRatio="xMidYMid meet"
   id="svg12"
   sodipodi:docname="frostbite-icon.svg"
   inkscape:version="0.92.3 (2405546, 2018-03-11)">
  <defs
     id="defs16">
    <linearGradient
       id="linearGradient906"
       inkscape:collect="always">
      <stop
         id="stop902"
         offset="0"
         style="stop-color:#e9c29b;stop-opacity:0.37864077" />
      <stop
         id="stop904"
         offset="1"
         style="stop-color:#33b0d7;stop-opacity:1" />
    </linearGradient>
    <linearGradient
       inkscape:collect="always"
       id="linearGradient890">
      <stop
         style="stop-color:#e9c29b;stop-opacity:0.38039216"
         offset="0"
         id="stop886" />
      <stop
         style="stop-color:#33b0d7;stop-opacity:1"
         offset="1"
         id="stop888" />
    </linearGradient>
    <linearGradient
       inkscape:collect="always"
       xlink:href="#linearGradient890"
       id="linearGradient892"
       x1="925.91724"
       y1="905.08875"
       x2="710.0592"
       y2="564.26038"
       gradientUnits="userSpaceOnUse" />
    <linearGradient
       inkscape:collect="always"
       xlink:href="#linearGradient906"
       id="linearGradient900"
       x1="212.2542"
       y1="1016.1628"
       x2="451.11615"
       y2="571.19244"
       gradientUnits="userSpaceOnUse" />
  </defs>
  <sodipodi:namedview
     pagecolor="#ffffff"
     bordercolor="#666666"
     borderopacity="1"
     objecttolerance="10"
     gridtolerance="10"
     guidetolerance="10"
     inkscape:pageopacity="0"
     inkscape:pageshadow="2"
     inkscape:window-width="640"
     inkscape:window-height="480"
     id="namedview14"
     showgrid="false"
     inkscape:zoom="0.39609375"
     inkscape:cx="351.71598"
     inkscape:cy="1055.3057"
     inkscape:current-layer="svg12" />
  <metadata
     id="metadata2">
Created by potrace 1.15, written by Peter Selinger 2001-2017
<rdf:RDF>
  <cc:Work
     rdf:about="">
    <dc:format>image/svg+xml</dc:format>
    <dc:type
       rdf:resource="http://purl.org/dc/dcmitype/StillImage" />
    <dc:title></dc:title>
  </cc:Work>
</rdf:RDF>
</metadata>
  <path
     style="fill:url(#linearGradient892);stroke:none;stroke-width:0.1;fill-opacity:1"
     inkscape:connector-curvature="0"
     id="path6"
     d="m 1043.7,344.2 c -6.5,6 -19,22 -23.1,29.8 -4.6,8.7 -7.5,19.5 -8.2,31 -0.8,11.7 0.5,20 5.7,36.8 4.6,14.7 7.6,28.6 8.4,39.7 l 0.7,8 -3.8,-6.5 c -2,-3.6 -7.6,-13.3 -12.4,-21.5 -12.2,-20.9 -17.3,-31.4 -21,-43.4 -2.1,-6.7 -4.2,-11.4 -6,-13.5 -2.8,-3 -3.1,-3.1 -11.2,-3.1 -7.3,0 -8.9,0.4 -13.5,2.9 -6.4,3.5 -9.5,6.8 -17.2,18.2 -10,15 -14,29 -12.7,45.4 1,13.4 3.2,20.2 12.6,40 12.1,25.4 13.9,31.6 15,51.3 1,17.3 3.7,39.9 7.9,65.9 l 2.7,16.8 -2.2,7.2 c -3.4,10.6 -9.2,15.9 -37.4,33.9 -26.2,16.6 -42.6,30.9 -50.5,43.7 -2.1,3.4 -3.9,6.1 -4,6 -0.2,-0.2 0.3,-3.7 1.1,-7.8 3.9,-22.2 3.7,-43.9 -0.7,-55.6 -2.6,-6.9 -11.8,-16.8 -16.6,-17.8 -1.8,-0.4 -6.3,-2.8 -10,-5.2 -9.3,-6.1 -15.3,-7.7 -27.3,-7.2 -8.5,0.3 -10.5,0.8 -16.6,3.7 -9.5,4.7 -18.5,13.9 -25.9,26.6 -13.4,22.7 -20.2,42.3 -33.4,95.8 -11,44.4 -15.5,57.8 -22.7,67.4 -1.4,1.8 -9.2,8.1 -17.5,14 -28.7,20.4 -43.2,38 -52.3,63.1 -4.7,13.1 -6.7,26 -7.6,48.7 -0.8,20.1 -0.9,21.5 -4.4,33 -13.3,43.9 -23.3,105.2 -27.5,169 -0.9,13.1 -1.3,9.6 11.4,84.1 2.5,14.3 4.5,26.5 4.5,27 0.1,3.5 1.7,3.5 12.6,0.4 14.3,-4.2 55,-17.8 73.9,-24.7 47.7,-17.6 132.7,-59 136.2,-66.3 0.6,-1.4 2.6,-13 4.2,-25.8 7.9,-59.4 18.2,-96.4 35.8,-129.2 11.4,-21 17.1,-28 61.6,-74.8 37.9,-39.9 49.2,-51.1 69.7,-69.3 9.1,-8 19.3,-17.8 22.7,-21.9 12.2,-14.6 19,-30.2 25.7,-59.5 10.5,-45.1 14.3,-57.6 23.2,-76 5.5,-11.4 10,-16.8 24.4,-29.6 23.4,-20.8 33.5,-31.7 39.3,-42.3 l 2.7,-4.9 -2,-52.1 c -1.1,-28.7 -2.7,-68.3 -3.5,-88.1 l -1.4,-36 -8.6,-39.5 c -4.7,-21.7 -8.5,-39.8 -8.5,-40.3 0,-0.4 -1.1,-0.7 -2.5,-0.7 -1.4,0 -3.7,-0.7 -5.1,-1.7 -1.4,-0.9 -5.9,-2.4 -10.1,-3.4 -6.1,-1.5 -8.5,-1.6 -12.5,-0.8 -4.5,1 -5.1,0.9 -8.2,-1.5 -5.2,-3.9 -8,-10.7 -8.1,-19.1 0,-3.9 0.2,-8.8 0.5,-11 l 0.5,-3.9 -20,-4.8 c -11,-2.6 -20.5,-4.7 -21,-4.8 -0.6,0 -3.2,1.9 -5.8,4.2 z" />
  <path
     style="fill:url(#linearGradient900);stroke:none;stroke-width:0.1;fill-opacity:1"
     inkscape:connector-curvature="0"
     id="path8"
     d="m 76.3,378 c -10,1.4 -12.6,3.4 -14.7,11.5 -0.3,1.1 -1,8.5 -1.6,16.5 -1.1,14.9 -2.8,28 -3.7,28 -0.3,0 -2.5,-1.8 -5.1,-4 -2.5,-2.2 -7.4,-5.5 -11,-7.2 -8.8,-4.4 -13.6,-4.3 -23.5,0.5 L 9,426.9 v 6.9 c 0,11 -1.8,31.3 -4.5,49.7 -3.9,27.5 -4.8,42.5 -4.1,70 0.3,13.7 1.3,34.2 2.1,45.5 5.9,79.6 7.5,93.3 12,101.9 4,7.8 15.4,18.6 38.7,36.8 21,16.4 26.2,22.2 34.3,38.5 8.2,16.8 13.3,30.3 23,61.5 4.3,13.6 9.2,28.1 11,32 8.3,18.1 21.9,32.9 47.7,52.1 19.5,14.5 27.6,21.3 53.3,45.2 9.9,9.2 25.4,23.3 34.5,31.2 33.5,29.5 49.3,48.6 63.4,76.6 13.5,26.8 25.3,65 34.6,112.2 2.3,11.3 4.4,20.8 4.8,21.2 1.2,1.1 35.7,16.1 54.2,23.6 34.9,14 66.8,24.8 101.5,34.1 19.7,5.4 57.3,14.1 60.6,14.1 1.5,0 3.8,-0.9 5.2,-2 5.6,-4.5 12.5,-27.4 14.8,-49.6 1.7,-16.9 0.6,-58.7 -2,-78.4 -5.9,-43.3 -20.8,-102.1 -37.6,-148 -5.6,-15.3 -6.5,-19.7 -8.6,-39.5 -4.8,-47.6 -23.4,-75.6 -68.3,-102.5 -5.9,-3.6 -12.6,-8.1 -14.8,-9.9 -9.2,-7.9 -15.5,-22 -31.3,-69.6 -13,-39.2 -17.7,-51.7 -25.5,-67 -14.2,-28 -23.9,-40 -38.5,-47.1 -7.6,-3.7 -8.3,-3.9 -17.5,-3.8 -11.2,0.1 -20.7,2.8 -26.7,7.6 -2.1,1.6 -6.7,4.7 -10.3,6.8 -11.8,6.9 -16,13.4 -18.1,27.5 -1.8,11.9 1.2,37.1 6.7,55.9 0.3,1.2 -1.1,-0.4 -3.2,-3.4 -5.2,-7.7 -18.2,-20.1 -27.8,-26.5 -4.5,-2.9 -13.7,-8.4 -20.6,-12.1 -21.2,-11.4 -35.5,-20.1 -40.3,-24.6 -3.2,-3 -5.2,-6.2 -7.1,-11 l -2.5,-6.6 1.4,-16.4 c 2.2,-25.3 3.5,-53.8 3.3,-70.8 -0.2,-18.5 0.7,-22.5 10.7,-47.8 8.2,-20.7 9.5,-25.9 9.5,-39.8 0,-19.5 -4.6,-31.9 -18.3,-48.9 -6.1,-7.6 -8.3,-9.5 -14,-12.4 -5.7,-2.9 -7.9,-3.5 -13.5,-3.5 -10.4,-0.1 -15.1,4 -17.2,15.4 -2.2,11.4 -7.1,24.3 -19.6,50.8 -11.8,24.9 -12.9,27 -13.2,23.5 -0.6,-6.8 1.8,-28.6 4.4,-39.8 6.1,-26.4 6.5,-35.2 2.4,-52.4 -3.3,-13.5 -8.7,-22.7 -22,-37 C 99.5,379.3 92.3,375.8 76.3,378 Z m 229.4,390.2 c -0.3,0.8 -0.6,0.5 -0.6,-0.6 -0.1,-1.1 0.2,-1.7 0.5,-1.3 0.3,0.3 0.4,1.2 0.1,1.9 z m 14.7,40.8 c 4.9,12.4 5.2,13.4 2.3,8 -2.6,-4.7 -14.1,-36.4 -15.2,-41.5 -0.3,-1.7 1.6,3.1 4.3,10.5 2.7,7.4 6.6,17.8 8.6,23 z" />
  <g
     transform="matrix(0.442769,0,0,0.442769,-2973.9066,-96.914537)"
     style="clip-rule:evenodd;fill-rule:evenodd;stroke-linecap:round;stroke-miterlimit:10"
     id="Snowflake">
    <g
       id="g8">
      <path
         d="m 7997.78,1105.52 v 833.334"
         style="fill:none;fill-rule:nonzero;stroke:#48b9d5;stroke-width:54.16999817px"
         id="path2"
         inkscape:connector-curvature="0" />
      <path
         d="m 7811.52,1476.42 186.252,-186.252 186.252,186.252"
         style="fill:none;fill-rule:nonzero;stroke:#48b9d5;stroke-width:54.16999817px;stroke-linecap:square"
         id="path4"
         inkscape:connector-curvature="0" />
      <path
         d="m 7756.83,1781.55 240.943,-240.944 240.944,240.944"
         style="fill:none;fill-rule:nonzero;stroke:#48b9d5;stroke-width:54.16999817px"
         id="path6-0"
         inkscape:connector-curvature="0" />
    </g>
    <g
       id="g16">
      <path
         d="m 7997.78,1105.52 -721.688,416.667"
         style="fill:none;fill-rule:nonzero;stroke:#48b9d5;stroke-width:54.16999817px"
         id="path10"
         inkscape:connector-curvature="0" />
      <path
         d="m 7583.44,1129.67 254.425,68.173 -68.173,254.425"
         style="fill:none;fill-rule:nonzero;stroke:#48b9d5;stroke-width:54.16999817px;stroke-linecap:square"
         id="path12"
         inkscape:connector-curvature="0" />
      <path
         d="m 7291.85,1234.87 329.135,88.191 -88.192,329.135"
         style="fill:none;fill-rule:nonzero;stroke:#48b9d5;stroke-width:54.16999817px"
         id="path14"
         inkscape:connector-curvature="0" />
    </g>
    <g
       id="g24">
      <path
         d="M 7997.78,1105.52 7276.092,688.854"
         style="fill:none;fill-rule:nonzero;stroke:#48b9d5;stroke-width:54.16999817px"
         id="path18"
         inkscape:connector-curvature="0" />
      <path
         d="m 7769.69,758.767 68.173,254.425 -254.425,68.173"
         style="fill:none;fill-rule:nonzero;stroke:#48b9d5;stroke-width:54.16999817px;stroke-linecap:square"
         id="path20"
         inkscape:connector-curvature="0" />
      <path
         d="m 7532.79,558.841 88.192,329.135 -329.135,88.191"
         style="fill:none;fill-rule:nonzero;stroke:#48b9d5;stroke-width:54.16999817px"
         id="path22"
         inkscape:connector-curvature="0" />
    </g>
    <g
       id="g32">
      <path
         d="M 7997.78,1105.52 V 272.187"
         style="fill:none;fill-rule:nonzero;stroke:#48b9d5;stroke-width:54.16999817px"
         id="path26"
         inkscape:connector-curvature="0" />
      <path
         d="M 8184.03,734.614 7997.778,920.866 7811.526,734.614"
         style="fill:none;fill-rule:nonzero;stroke:#48b9d5;stroke-width:54.16999817px;stroke-linecap:square"
         id="path28"
         inkscape:connector-curvature="0" />
      <path
         d="M 8238.72,429.49 7997.776,670.434 7756.833,429.49"
         style="fill:none;fill-rule:nonzero;stroke:#48b9d5;stroke-width:54.16999817px"
         id="path30"
         inkscape:connector-curvature="0" />
    </g>
    <g
       id="g40">
      <path
         d="M 7997.78,1105.52 8719.468,688.854"
         style="fill:none;fill-rule:nonzero;stroke:#48b9d5;stroke-width:54.16999817px"
         id="path34"
         inkscape:connector-curvature="0" />
      <path
         d="m 8412.11,1081.37 -254.425,-68.173 68.173,-254.425"
         style="fill:none;fill-rule:nonzero;stroke:#48b9d5;stroke-width:54.16999817px;stroke-linecap:square"
         id="path36"
         inkscape:connector-curvature="0" />
      <path
         d="m 8703.7,976.167 -329.135,-88.191 88.191,-329.135"
         style="fill:none;fill-rule:nonzero;stroke:#48b9d5;stroke-width:54.16999817px"
         id="path38"
         inkscape:connector-curvature="0" />
    </g>
    <g
       id="g48">
      <path
         d="m 7997.78,1105.52 721.688,416.667"
         style="fill:none;fill-rule:nonzero;stroke:#48b9d5;stroke-width:54.16999817px"
         id="path42"
         inkscape:connector-curvature="0" />
      <path
         d="m 8225.86,1452.27 -68.173,-254.425 254.425,-68.173"
         style="fill:none;fill-rule:nonzero;stroke:#48b9d5;stroke-width:54.16999817px;stroke-linecap:square"
         id="path44"
         inkscape:connector-curvature="0" />
      <path
         d="m 8462.76,1652.19 -88.191,-329.135 329.135,-88.191"
         style="fill:none;fill-rule:nonzero;stroke:#48b9d5;stroke-width:54.16999817px"
         id="path46"
         inkscape:connector-curvature="0" />
    </g>
  </g>
</svg>
