<?xml version="1.0" encoding="UTF-8" standalone="no"?>
<svg
   xmlns:dc="http://purl.org/dc/elements/1.1/"
   xmlns:cc="http://creativecommons.org/ns#"
   xmlns:rdf="http://www.w3.org/1999/02/22-rdf-syntax-ns#"
   xmlns:svg="http://www.w3.org/2000/svg"
   xmlns="http://www.w3.org/2000/svg"
   xmlns:xlink="http://www.w3.org/1999/xlink"
   xmlns:sodipodi="http://sodipodi.sourceforge.net/DTD/sodipodi-0.dtd"
   xmlns:inkscape="http://www.inkscape.org/namespaces/inkscape"
   version="1.0"
   width="1280.000000pt"
   height="1280.000000pt"
   viewBox="0 0 1280.000000 1280.000000"
   preserveAspectRatio="xMidYMid meet"
   id="svg12"
   sodipodi:docname="frostbite-icon.svg"
   inkscape:version="0.92.3 (2405546, 2018-03-11)">
  <defs
     id="defs16">
    <linearGradient
       id="linearGradient906"
       inkscape:collect="always">
      <stop
         id="stop902"
         offset="0"
         style="stop-color:#e9c29b;stop-opacity:0.37864077" />
      <stop
         id="stop904"
         offset="1"
         style="stop-color:#33b0d7;stop-opacity:1" />
    </linearGradient>
    <linearGradient
       inkscape:collect="always"
       id="linearGradient890">
      <stop
         style="stop-color:#e9c29b;stop-opacity:0.38039216"
         offset="0"
         id="stop886" />
      <stop
         style="stop-color:#33b0d7;stop-opacity:1"
         offset="1"
         id="stop888" />
    </linearGradient>
    <linearGradient
       inkscape:collect="always"
       xlink:href="#linearGradient890"
       id="linearGradient892"
       x1="925.91724"
       y1="905.08875"
       x2="710.0592"
       y2="564.26038"
       gradientUnits="userSpaceOnUse"
       gradientTransform="matrix(0.99183711,0,0,0.99183711,69.377369,0.093369)" />
    <linearGradient
       inkscape:collect="always"
       xlink:href="#linearGradient906"
       id="linearGradient900"
       x1="212.2542"
       y1="1016.1628"
       x2="451.11615"
       y2="571.19244"
       gradientUnits="userSpaceOnUse"
       gradientTransform="matrix(0.99183711,0,0,0.99183711,69.377369,0.093369)" />
  </defs>
  <sodipodi:namedview
     pagecolor="#ffffff"
     bordercolor="#666666"
     borderopacity="1"
     objecttolerance="10"
     gridtolerance="10"
     guidetolerance="10"
     inkscape:pageopacity="0"
     inkscape:pageshadow="2"
     inkscape:window-width="640"
     inkscape:window-height="480"
     id="namedview14"
     showgrid="false"
     inkscape:zoom="0.39609375"
     inkscape:cx="-69.901377"
     inkscape:cy="954.31951"
     inkscape:current-layer="svg12" />
  <path
     style="fill:url(#linearGradient892);fill-opacity:1;stroke:none;stroke-width:0.09918372"
     inkscape:connector-curvature="0"
     id="path6"
     d="m 1104.5577,341.4837 c -6.4469,5.95103 -18.8449,21.82042 -22.9114,29.55675 -4.5624,8.62898 -7.4388,19.34082 -8.1331,30.74695 -0.7934,11.60449 0.496,19.83674 5.6535,36.4996 4.5625,14.58001 7.538,28.36655 8.3314,39.37594 l 0.6943,7.93469 -3.7689,-6.44694 c -1.9837,-3.57061 -7.538,-13.19143 -12.2988,-21.32449 -12.1004,-20.7294 -17.1588,-31.14369 -20.8286,-43.04573 -2.0829,-6.64531 -4.1657,-11.30695 -5.951,-13.38981 -2.7772,-2.97551 -3.0747,-3.07469 -11.1086,-3.07469 -7.2404,0 -8.8274,0.39673 -13.3898,2.87633 -6.3478,3.47143 -9.4225,6.74449 -17.0596,18.05143 -9.91836,14.87756 -13.88571,28.76328 -12.59632,45.02941 0.99184,13.29061 3.17388,20.03511 12.49712,39.67348 12.0012,25.19266 13.7865,31.34205 14.8776,50.88125 0.9918,17.15878 3.6698,39.5743 7.8355,65.36206 l 2.6779,16.66286 -2.182,7.14123 c -3.3722,10.51347 -9.1249,15.77021 -37.09469,33.62328 -25.98613,16.4645 -42.25226,30.64777 -50.08777,43.34328 -2.08286,3.37225 -3.86817,6.05021 -3.96735,5.95102 -0.19837,-0.19836 0.29755,-3.66979 1.09102,-7.73633 3.86816,-22.01878 3.6698,-43.54164 -0.69429,-55.14614 -2.57877,-6.84368 -11.70368,-16.66286 -16.46449,-17.6547 -1.78531,-0.39673 -6.24858,-2.77714 -9.91837,-5.15755 -9.22409,-6.05021 -15.17511,-7.63715 -27.07716,-7.14123 -8.43061,0.29755 -10.41429,0.79347 -16.46449,3.6698 -9.42246,4.66163 -18.34899,13.78653 -25.68859,26.38286 -13.29061,22.51471 -20.0351,41.95471 -33.12735,95.018 -10.91021,44.03757 -15.37348,57.32818 -22.51471,66.84982 -1.38857,1.78531 -9.1249,8.03388 -17.35715,13.88572 -28.46572,20.23348 -42.84736,37.68981 -51.87308,62.58492 -4.66163,12.99307 -6.64531,25.78777 -7.53796,48.30247 -0.79347,19.93593 -0.89265,21.3245 -4.36408,32.73062 -13.19144,43.54164 -23.10981,104.34124 -27.27552,167.62044 -0.89266,12.9931 -1.28939,9.5217 11.30694,83.4135 2.47959,14.1833 4.46327,26.2837 4.46327,26.7796 0.0992,3.4715 1.68612,3.4715 12.49714,0.3968 14.18328,-4.1657 54.55105,-17.6547 73.29677,-24.4984 47.31063,-17.4563 131.61678,-58.5184 135.08821,-65.7588 0.5951,-1.3886 2.57878,-12.8939 4.16572,-25.5894 7.83551,-58.9151 18.05143,-95.6131 35.50777,-128.1454 11.30694,-20.82853 16.96041,-27.77139 61.09711,-74.18937 37.5907,-39.5743 48.7984,-50.68288 69.1311,-68.73431 9.0257,-7.9347 19.1424,-17.6547 22.5147,-21.72124 12.1004,-14.48082 18.8449,-29.95348 25.4902,-59.0143 10.4143,-44.73186 14.1833,-57.12982 23.0106,-75.37962 5.4551,-11.30695 9.9184,-16.66287 24.2008,-29.35838 23.209,-20.63021 33.2266,-31.44124 38.9792,-41.95471 l 2.678,-4.86 -1.9837,-51.67472 c -1.091,-28.46572 -2.6779,-67.74247 -3.4714,-87.38085 l -1.3886,-35.70613 -8.5298,-39.17757 c -4.6616,-21.52286 -8.4306,-39.47512 -8.4306,-39.97103 0,-0.39674 -1.091,-0.69429 -2.4796,-0.69429 -1.3886,0 -3.6698,-0.69429 -5.0584,-1.68612 -1.3885,-0.89266 -5.8518,-2.38041 -10.0175,-3.37225 -6.0502,-1.48776 -8.4306,-1.58694 -12.398,-0.79347 -4.4632,0.99184 -5.0583,0.89265 -8.133,-1.48776 -5.1576,-3.86816 -7.9347,-10.61265 -8.0339,-18.94408 0,-3.86817 0.1984,-8.72817 0.4959,-10.91021 l 0.4959,-3.86817 -19.8367,-4.76082 c -10.9102,-2.57877 -20.3327,-4.66163 -20.8286,-4.76081 -0.5951,0 -3.1739,1.88449 -5.7527,4.16571 z" />
  <path
     style="fill:url(#linearGradient900);fill-opacity:1;stroke:none;stroke-width:0.09918372"
     inkscape:connector-curvature="0"
     id="path8"
     d="m 145.05454,375.0078 c -9.91837,1.38857 -12.49714,3.37224 -14.58,11.40612 -0.29755,1.09102 -0.99184,8.43062 -1.58694,16.36532 -1.09102,14.77837 -2.77715,27.77144 -3.6698,27.77144 -0.29755,0 -2.47959,-1.78531 -5.05837,-3.96735 -2.47959,-2.18204 -7.33959,-5.45511 -10.91021,-7.14123 -8.72817,-4.36408 -13.488984,-4.2649 -23.308171,0.49592 l -7.637146,3.57061 v 6.84368 c 0,10.91021 -1.785307,31.0445 -4.463267,49.2943 -3.868164,27.27552 -4.760818,42.15308 -4.066532,69.4286 0.297551,13.58817 1.289388,33.92083 2.082858,45.12859 5.851839,78.95023 7.438778,92.5384 11.902045,101.0682 3.967349,7.73633 15.274292,18.44817 38.384103,36.49961 20.82857,16.26612 25.98613,22.01878 34.02001,38.18572 8.13306,16.66287 13.19143,30.05267 22.81225,60.99799 4.2649,13.48898 9.1249,27.87062 10.91021,31.73878 8.23225,17.95226 21.72123,32.63145 47.31063,51.67472 19.34082,14.38164 27.3747,21.12613 52.86492,44.83104 9.81919,9.1249 25.19266,23.1098 34.21838,30.94531 33.22654,29.25923 48.89757,48.20333 62.88247,75.97473 13.3898,26.5812 25.09348,64.4694 34.31757,111.2841 2.28122,11.2078 4.36408,20.6302 4.76081,21.027 1.19021,1.091 35.40859,15.9685 53.75758,23.4073 34.61511,13.8857 66.25471,24.5976 100.67146,33.8217 19.53919,5.3559 56.83227,13.9849 60.10533,13.9849 1.48776,0 3.76898,-0.8927 5.15755,-1.9837 5.55429,-4.4633 12.39797,-27.1763 14.67919,-49.1951 1.68613,-16.7621 0.59511,-58.2209 -1.98367,-77.7601 -5.85184,-42.9465 -20.63021,-101.2665 -37.29308,-146.79185 -5.55428,-15.1751 -6.44694,-19.53919 -8.5298,-39.17756 -4.76081,-47.21145 -23.20898,-74.98289 -67.74247,-101.66331 -5.85184,-3.57061 -12.49715,-8.03388 -14.67919,-9.81918 -9.1249,-7.83552 -15.37347,-21.82042 -31.0445,-69.03187 -12.89388,-38.88001 -17.55552,-51.27797 -25.29185,-66.45308 -14.08408,-27.77144 -23.7049,-39.67349 -38.18573,-46.71553 -7.53796,-3.6698 -8.23224,-3.86817 -17.35715,-3.76898 -11.10857,0.0992 -20.53102,2.77714 -26.48205,7.53796 -2.08285,1.58694 -6.64531,4.66164 -10.21592,6.74449 -11.70368,6.84368 -15.86939,13.29062 -17.95225,27.27552 -1.78531,11.80287 1.1902,36.79716 6.64531,55.4437 0.29755,1.1902 -1.09102,-0.39674 -3.17388,-3.37225 -5.15755,-7.63714 -18.05144,-19.93592 -27.57307,-26.28368 -4.46327,-2.87633 -13.58817,-8.33143 -20.43185,-12.00123 -21.02694,-11.30694 -35.21021,-19.93593 -39.97103,-24.39919 -3.17388,-2.97551 -5.15756,-6.14939 -7.04205,-10.91021 l -2.47959,-6.54613 1.38857,-16.26613 c 2.18204,-25.09347 3.47143,-53.36083 3.27307,-70.22206 -0.19837,-18.34899 0.69428,-22.31634 10.61265,-47.40982 8.13307,-20.53102 9.42246,-25.68858 9.42246,-39.47511 0,-19.34083 -4.56246,-31.63961 -18.15062,-48.50084 -6.05021,-7.53796 -8.23225,-9.42245 -13.88572,-12.29878 -5.65347,-2.87633 -7.83552,-3.47143 -13.3898,-3.47143 -10.31511,-0.0992 -14.97674,3.96735 -17.0596,15.27429 -2.18204,11.30695 -7.04205,24.10164 -19.44001,50.38533 -11.70368,24.69674 -12.7947,26.7796 -13.09225,23.30817 -0.5951,-6.74449 1.78531,-28.36654 4.36408,-39.47512 6.05021,-26.1845 6.44694,-34.91266 2.38041,-51.97226 -3.27306,-13.3898 -8.62898,-22.5147 -21.82041,-36.69797 -16.36532,-17.6547 -23.50654,-21.12613 -39.37594,-18.94409 z m 227.52744,387.01484 c -0.29756,0.79347 -0.59511,0.49592 -0.59511,-0.5951 -0.0992,-1.09103 0.19837,-1.68613 0.49592,-1.28939 0.29755,0.29755 0.39674,1.1902 0.0992,1.88449 z m 14.58,40.46695 c 4.86,12.29878 5.15755,13.29062 2.28123,7.9347 -2.57878,-4.66164 -13.98491,-36.10287 -15.07593,-41.16124 -0.29755,-1.68612 1.58694,3.07469 4.2649,10.41429 2.67796,7.33959 6.54613,17.6547 8.5298,22.81225 z" />
  <g
     transform="matrix(0.43915473,0,0,0.43915473,-2880.2536,-96.030065)"
     style="clip-rule:evenodd;fill-rule:evenodd;stroke-linecap:round;stroke-miterlimit:10"
     id="Snowflake">
    <g
       id="g8">
      <path
         d="m 7997.78,1105.52 v 833.334"
         style="fill:none;fill-rule:nonzero;stroke:#48b9d5;stroke-width:54.16999817px"
         id="path2"
         inkscape:connector-curvature="0" />
      <path
         d="m 7811.52,1476.42 186.252,-186.252 186.252,186.252"
         style="fill:none;fill-rule:nonzero;stroke:#48b9d5;stroke-width:54.16999817px;stroke-linecap:square"
         id="path4"
         inkscape:connector-curvature="0" />
      <path
         d="m 7756.83,1781.55 240.943,-240.944 240.944,240.944"
         style="fill:none;fill-rule:nonzero;stroke:#48b9d5;stroke-width:54.16999817px"
         id="path6-0"
         inkscape:connector-curvature="0" />
    </g>
    <g
       id="g16">
      <path
         d="m 7997.78,1105.52 -721.688,416.667"
         style="fill:none;fill-rule:nonzero;stroke:#48b9d5;stroke-width:54.16999817px"
         id="path10"
         inkscape:connector-curvature="0" />
      <path
         d="m 7583.44,1129.67 254.425,68.173 -68.173,254.425"
         style="fill:none;fill-rule:nonzero;stroke:#48b9d5;stroke-width:54.16999817px;stroke-linecap:square"
         id="path12"
         inkscape:connector-curvature="0" />
      <path
         d="m 7291.85,1234.87 329.135,88.191 -88.192,329.135"
         style="fill:none;fill-rule:nonzero;stroke:#48b9d5;stroke-width:54.16999817px"
         id="path14"
         inkscape:connector-curvature="0" />
    </g>
    <g
       id="g24">
      <path
         d="M 7997.78,1105.52 7276.092,688.854"
         style="fill:none;fill-rule:nonzero;stroke:#48b9d5;stroke-width:54.16999817px"
         id="path18"
         inkscape:connector-curvature="0" />
      <path
         d="m 7769.69,758.767 68.173,254.425 -254.425,68.173"
         style="fill:none;fill-rule:nonzero;stroke:#48b9d5;stroke-width:54.16999817px;stroke-linecap:square"
         id="path20"
         inkscape:connector-curvature="0" />
      <path
         d="m 7532.79,558.841 88.192,329.135 -329.135,88.191"
         style="fill:none;fill-rule:nonzero;stroke:#48b9d5;stroke-width:54.16999817px"
         id="path22"
         inkscape:connector-curvature="0" />
    </g>
    <g
       id="g32">
      <path
         d="M 7997.78,1105.52 V 272.187"
         style="fill:none;fill-rule:nonzero;stroke:#48b9d5;stroke-width:54.16999817px"
         id="path26"
         inkscape:connector-curvature="0" />
      <path
         d="M 8184.03,734.614 7997.778,920.866 7811.526,734.614"
         style="fill:none;fill-rule:nonzero;stroke:#48b9d5;stroke-width:54.16999817px;stroke-linecap:square"
         id="path28"
         inkscape:connector-curvature="0" />
      <path
         d="M 8238.72,429.49 7997.776,670.434 7756.833,429.49"
         style="fill:none;fill-rule:nonzero;stroke:#48b9d5;stroke-width:54.16999817px"
         id="path30"
         inkscape:connector-curvature="0" />
    </g>
    <g
       id="g40">
      <path
         d="M 7997.78,1105.52 8719.468,688.854"
         style="fill:none;fill-rule:nonzero;stroke:#48b9d5;stroke-width:54.16999817px"
         id="path34"
         inkscape:connector-curvature="0" />
      <path
         d="m 8412.11,1081.37 -254.425,-68.173 68.173,-254.425"
         style="fill:none;fill-rule:nonzero;stroke:#48b9d5;stroke-width:54.16999817px;stroke-linecap:square"
         id="path36"
         inkscape:connector-curvature="0" />
      <path
         d="m 8703.7,976.167 -329.135,-88.191 88.191,-329.135"
         style="fill:none;fill-rule:nonzero;stroke:#48b9d5;stroke-width:54.16999817px"
         id="path38"
         inkscape:connector-curvature="0" />
    </g>
    <g
       id="g48">
      <path
         d="m 7997.78,1105.52 721.688,416.667"
         style="fill:none;fill-rule:nonzero;stroke:#48b9d5;stroke-width:54.16999817px"
         id="path42"
         inkscape:connector-curvature="0" />
      <path
         d="m 8225.86,1452.27 -68.173,-254.425 254.425,-68.173"
         style="fill:none;fill-rule:nonzero;stroke:#48b9d5;stroke-width:54.16999817px;stroke-linecap:square"
         id="path44"
         inkscape:connector-curvature="0" />
      <path
         d="m 8462.76,1652.19 -88.191,-329.135 329.135,-88.191"
         style="fill:none;fill-rule:nonzero;stroke:#48b9d5;stroke-width:54.16999817px"
         id="path46"
         inkscape:connector-curvature="0" />
    </g>
  </g>
</svg>
